<?xml version="1.0" encoding="utf-8"?>
<!-- Generator: Adobe Illustrator 21.1.0, SVG Export Plug-In . SVG Version: 6.00 Build 0)  -->
<svg version="1.1" id="Layer_1" xmlns="http://www.w3.org/2000/svg" xmlns:xlink="http://www.w3.org/1999/xlink" x="0px" y="0px"
	 viewBox="0 0 16 16" style="enable-background:new 0 0 16 16;" xml:space="preserve">
<style type="text/css">
	.st0{fill:#ED1844;}
</style>
<title>OpenStack_Logo2016</title>
<desc>Created with Sketch.</desc>
<path id="Fill-26" class="st0" d="M13.6,1.2H2.4c-0.7,0-1.3,0.6-1.3,1.3v3h3.1V5c0-0.4,0.3-0.7,0.7-0.7h6.2c0.4,0,0.7,0.3,0.7,0.7
	v0.5h3.1v-3C14.9,1.7,14.3,1.2,13.6,1.2z"/>
<path id="Fill-28" class="st0" d="M11.8,10.8c0,0.4-0.3,0.7-0.7,0.7H4.9c-0.4,0-0.7-0.3-0.7-0.7v-0.5H1.1v3c0,0.7,0.6,1.3,1.3,1.3
	h11.2c0.7,0,1.3-0.6,1.3-1.3v-3h-3.1V10.8z"/>
<polygon id="Fill-30" class="st0" points="1.1,9.5 4.2,9.5 4.2,6.4 1.1,6.4 "/>
<polygon id="Fill-32" class="st0" points="11.8,9.5 14.9,9.5 14.9,6.4 11.8,6.4 "/>
</svg>
